# xmcd
#
# Track frame offsets:
#	150
#	23189
#	44174
#	62644
#	82533
#	101898
#	120901
#	139500
#	157003
#	175209
#
# Disc length: 2656 seconds
#
# Revision: 1
# Processed by: cddbd v1.5.2PL0 Copyright (c) Steve Scherf et al.
# Submitted via: audiograbber 1.83.01
#
DISCID=7b0a5e0a
DTITLE=Mike Tramp - Museum
DYEAR=2014
DGENRE=Blues
TTITLE0=Trust In Yourself
TTITLE1=New World Coming
TTITLE2=Down South
TTITLE3=Better
TTITLE4=Freedom
TTITLE5=Commitment
TTITLE6=And You Were Gone
TTITLE7=Slave
TTITLE8=Mother
TTITLE9=Time For Me To Go
EXTD=
EXTT0=
EXTT1=
EXTT2=
EXTT3=
EXTT4=
EXTT5=
EXTT6=
EXTT7=
EXTT8=
EXTT9=
PLAYORDER=
